<svg xmlns="http://www.w3.org/2000/svg" fill="#264058" version="1.1" x="0" y="0" id="constellation" width="446.5" height="308" viewBox="0 0 446.5 308" enable-background="new 0 0 446.5 308" xml:space="preserve">
    <path fill-rule="evenodd" clip-rule="evenodd" d="M181.3 30.43c1.31 0.81 2.45 1.75 2.63 3.43 0.28 2.62-1.47 4.59-4.14 4.63 -0.26 0-0.51 0-0.92 0 -0.53 1.68-1.09 3.38-1.6 5.08 -0.05 0.17 0.1 0.53 0.26 0.63 2.31 1.46 2.75 3.48 1.7 5.96 3.04 2.17 6.04 4.32 9.06 6.46 0.21 0.14 0.56 0.2 0.82 0.15 3.19-0.59 3.92-0.28 5.82 2.54 3.2-1.92 6.4-3.83 9.6-5.75 5.79-3.47 11.58-6.93 17.34-10.44 0.57-0.35 1.1-0.94 1.39-1.54 1.39-2.84 5.04-3.26 7.05-0.81 0.44 0.53 1.04 1.02 1.67 1.27 21.92 8.88 43.86 17.73 65.79 26.58 6.77 2.73 13.53 5.47 20.3 8.21 0.65 0.26 1.14 0.47 1.74-0.32 1.28-1.69 3.63-2.03 5.32-0.97 1.79 1.13 2.43 3.32 1.55 5.33 -0.08 0.19-0.2 0.37-0.35 0.68 18.48 15.45 36.95 30.88 55.46 46.35 0.29-0.24 0.55-0.45 0.81-0.65 1.68-1.33 3.79-1.24 5.43 0.16 0.34 0.28 1.04 0.52 1.37 0.36 12.2-5.74 24.38-11.52 36.57-17.31 0.11-0.05 0.19-0.16 0.21-0.17 -0.3-0.98-0.75-1.88-0.84-2.82 -0.18-1.95 1.01-3.56 2.81-4.13 1.8-0.56 3.64 0.13 4.71 1.76 0.16 0.25 0.33 0.5 0.5 0.74 0 0.95 0 1.89 0 2.84 -1.89 2.77-3.06 3.14-6.16 2.1 -0.4-0.13-0.98 0.08-1.41 0.28 -11.03 5.22-22.05 10.45-33.07 15.69 -1.24 0.59-2.47 1.18-3.69 1.76 0.1 0.6 0.23 1.1 0.26 1.61 0.12 1.78-0.66 3.08-2.18 3.93 -1.45 0.81-3.16 0.62-4.46-0.46 -1.37-1.13-1.85-2.64-1.34-4.28 0.29-0.92-0.02-1.29-0.64-1.8 -10.8-9.01-21.59-18.04-32.38-27.06 -7.4-6.18-14.8-12.35-22.22-18.55 -1.54 1.26-3.21 1.74-5.02 0.75 -1.93-1.06-2.35-2.83-2.04-4.97 -29.23-11.8-58.45-23.59-87.43-35.29 -0.53 1.29-0.77 2.71-1.58 3.59 -0.82 0.89-2.22 1.23-3.75 2 -0.36 2.6-0.81 5.74-1.24 8.87 -0.98 7.19-1.95 14.39-2.93 21.58 -0.83 6.04-1.66 12.08-2.49 18.13 -0.84 6.08-1.66 12.17-2.51 18.25 -0.12 0.85-0.14 1.41 0.89 1.89 2.38 1.1 2.94 4.02 1.37 6.13 -0.2 0.27-0.43 0.53-0.8 0.98 10.44 15.6 20.91 31.23 31.33 46.79 3.38-0.87 5.23-0.23 6.19 1.94 0.82 1.84 0.19 4-1.5 5.1 -1.69 1.1-3.93 0.81-5.29-0.69 -1.53-1.68-1.39-3.7 0.45-6.1 -2.67-3.86-5.4-7.72-8.03-11.64 -7.57-11.33-15.11-22.69-22.63-34.06 -0.56-0.84-0.97-1.22-2.12-0.86 -2.01 0.64-4.2-0.81-4.78-2.89 -0.58-2.06 0.55-4.43 2.65-4.91 1.47-0.34 1.79-1.03 1.95-2.4 0.71-5.84 1.58-11.66 2.38-17.49 1-7.23 1.98-14.47 2.98-21.7 1-7.28 1.99-14.55 2.99-21.83 0.23-1.66 0.47-3.32 0.64-4.98 0.03-0.34-0.15-0.91-0.4-1.04 -1.52-0.79-2.22-2.1-2.49-3.83 -0.42 0.22-0.79 0.38-1.14 0.59 -8.59 5.16-17.17 10.31-25.77 15.46 -0.63 0.38-0.96 0.74-1.02 1.57 -0.17 2.4-1.96 3.82-4.35 3.82 -0.65 0-1.46 0.23-1.92 0.66 -9.41 8.7-18.78 17.46-28.18 26.19 -0.65 0.6-0.85 1.04-0.4 1.94 0.79 1.56 0.48 3.12-0.73 4.4 -1.2 1.27-2.66 1.67-4.35 1.09 -0.32-0.11-0.63-0.23-1.02-0.38 -7.29 9.56-14.55 19.1-21.84 28.67 1.09 1.32 1.86 2.72 1.18 4.4 -0.3 0.73-0.74 1.54-1.36 1.96 -0.85 0.59-0.91 1.12-0.62 2.01 5.6 16.73 11.18 33.46 16.75 50.2 0.26 0.77 0.52 1.19 1.48 1.18 2.48-0.04 4.39 2.07 4.17 4.4 -0.24 2.47-2.39 4.09-4.93 3.71 -0.08-0.01-0.17 0.01-0.35 0.03 -8.58 24.73-17.17 49.5-25.74 74.21 0.13 0.17 0.17 0.26 0.23 0.29 1.67 0.75 2.76 2 2.8 3.85 0.04 1.83-0.92 3.17-2.6 3.96 -0.07 0.03-0.11 0.13-0.16 0.19 -0.86 0-1.72 0-2.58 0 -1.6-0.76-2.69-1.94-2.94-3.78 -8.82 0-17.57 0-26.38 0 -0.28 1.84-1.35 3.03-2.96 3.79 -0.86 0-1.72 0-2.58 0 -1.16-0.75-2.33-1.53-2.59-3.01 -0.14-0.8-0.57-1.01-1.28-1.17 -2.72-0.59-5.43-1.25-8.15-1.88 -13.29-3.05-26.59-6.09-39.87-9.18 -0.9-0.21-1.33-0.11-1.81 0.75 -0.85 1.55-2.61 2.2-4.33 1.85 -1.58-0.33-2.95-1.78-3.18-3.36 -0.25-1.78 0.6-3.47 2.19-4.31 0.36-0.19 0.74-0.36 1.1-0.55 -1.05-7.96-2.08-15.82-3.12-23.73 -2.14 0.11-3.37-1.05-4.29-2.67 0-0.94 0-1.89 0-2.84 1.89-2.67 2.73-2.98 5.84-2.29 0.32 0.07 0.88-0.33 1.13-0.67 4.92-6.53 9.81-13.07 14.7-19.62 6.88-9.2 13.75-18.4 20.62-27.6 0.18-0.24 0.35-0.48 0.47-0.65 -0.42-0.78-0.94-1.45-1.16-2.21 -0.68-2.28 0.72-4.61 3.1-5.08 0.91-0.18 1.17-0.59 1.26-1.44 0.82-7.6 1.68-15.2 2.53-22.8 0.36-3.24 0.74-6.49 1.03-9.74 0.03-0.35-0.34-0.93-0.68-1.1 -1.94-1-2.92-2.65-2.6-4.58 0.3-1.78 1.87-3.2 3.74-3.38 1.91-0.18 3.61 0.94 4.25 3.02 0.31 1 0.95 0.82 1.6 0.82 9.42 0.01 18.85 0.01 28.27 0.01 6.41 0 12.83 0 19.24 0 0.55 0 1.1 0 1.6 0 1.39-3.65 3.38-4.62 6.63-3.19 7.26-9.53 14.55-19.1 21.83-28.65 -1.67-2.6-1.73-4.49-0.21-6.08 1.51-1.59 3.4-1.67 5.92-0.22 9.86-9.19 19.73-18.39 29.36-27.37 -0.7-1.37-1.69-2.51-1.8-3.73 -0.11-1.23 0.66-2.53 1.09-3.99 -2.77-1.97-5.84-4.17-8.88-6.34 -3.41 2.3-5.25 1.92-7.47-1.5 -3.81 0.86-7.66 1.69-11.48 2.63 -0.4 0.1-0.76 0.82-0.91 1.32 -0.54 1.8-1.68 2.9-3.52 3.15 -1.69 0.23-3.03-0.45-3.96-1.88 -1.23-1.9-0.65-4.44 1.26-5.65 1.98-1.25 4.53-0.64 5.72 1.38 0.23 0.4 0.41 0.84 0.66 1.35 2.89-0.65 5.77-1.3 8.65-1.95 0.29-0.06 0.59-0.13 0.88-0.19 1.48-0.31 2.87-0.44 3-2.62 0.1-1.67 1.93-2.8 3.71-2.75 0.93 0.02 1.3-0.32 1.52-1.14 0.39-1.45 0.86-2.87 1.31-4.35 -1.37-0.79-2.42-1.79-2.59-3.47 -0.21-2.15 0.94-3.46 2.65-4.46C179.4 30.43 180.35 30.43 181.3 30.43zM117.36 273.31c0.46-2.01 1.42-3.52 3.49-3.75 1.04-0.11 1.45-0.52 1.77-1.44 7.62-22.03 15.26-44.05 22.9-66.08 0.82-2.38 1.64-4.76 2.44-7.12 -0.42-0.3-0.74-0.51-1.04-0.76 -1.96-1.67-1.98-4.78 0.1-6.29 0.91-0.66 0.88-1.19 0.57-2.11 -4.66-13.92-9.29-27.85-13.92-41.78 -1.06-3.17-2.13-6.32-3.2-9.48 -2.96 0.27-4.67-1.09-5.35-3.85 -0.59 0-1.1 0-1.62 0 -9.98 0-19.97 0-29.95 0 -5.9 0-11.79 0.01-17.69-0.01 -0.81 0-1.17 0.19-1.58 1.02 -0.48 1-1.42 2.24-2.37 2.46 -1.71 0.4-1.97 1.31-1.92 2.71 0.01 0.25-0.08 0.51-0.11 0.77 -0.56 5-1.12 9.99-1.68 14.99 -0.57 5.08-1.11 10.16-1.71 15.24 -0.1 0.89-0.07 1.43 0.94 1.85 2.04 0.86 2.86 3.17 2.05 5.19 -0.8 2-3.04 3.1-5.08 2.34 -0.86-0.32-1.26-0.13-1.78 0.56 -10.43 14-20.9 27.99-31.35 41.97 -1.48 1.99-2.96 3.98-4.43 5.94 2.44 2.89 1.54 6.06-1.91 7.46 1 7.61 1.99 15.23 3.03 22.84 0.05 0.32 0.52 0.75 0.87 0.83 2.22 0.53 3.39 1.68 3.63 3.92 0.08 0.76 0.36 0.97 1.06 1.13 13.22 3.02 26.43 6.08 39.65 9.12 3.16 0.73 6.33 1.45 9.48 2.16 0.8-2.45 2.02-3.59 3.92-3.67 2.67-0.11 3.94 1.49 4.53 3.84C99.88 273.31 108.57 273.31 117.36 273.31z"/>
</svg>
