<svg xmlns="http://www.w3.org/2000/svg" id='sun' fill='#000' x="0" y="0" width="200" height="200" viewBox="0 0 200 200">
   <defs>
      <link href="../test/style.css" type="text/css" rel="stylesheet" xmlns="http://www.w3.org/1999/xhtml"/>
   </defs>
   <path fill-rule="evenodd" clip-rule="evenodd" d="M100 153c-29 0-53-24-53-54 0-29 24-54 53-54 29 0 53 24 53 54C154 129 130 153 100 153zM166 32c-5 11-10 22-15 32 -6-6-11-11-17-17C145 43 155 38 166 32zM35 32C46 38 56 43 67 48c-6 6-11 11-17 17C45 54 40 44 35 32zM49 134c5 5 11 11 17 16 -9 5-20 10-31 15C40 154 45 144 49 134zM41 87c0 8 0 16 0 24 -11-4-22-8-33-12C19 95 30 91 41 87zM193 99c-11 4-22 8-33 12 0-8 0-16 0-24 11 4 22 8 33 12C193 99 193 99 193 99zM112 39c-8 0-16 0-24 0 4-11 8-22 12-34C105 16 108 28 112 39zM134 150c6-6 11-11 17-17 5 10 10 21 15 31 0 0 0 0 0 0C155 160 145 155 134 150zM89 159c8 0 16 0 24 0 -4 11-8 22-12 34C96 181 92 170 89 159z"/>
</svg>
